<?xml version="1.0" encoding="utf-8"?>
<!-- Generator: Adobe Illustrator 24.0.0, SVG Export Plug-In . SVG Version: 6.00 Build 0)  -->
<svg version="1.1" xmlns="http://www.w3.org/2000/svg" xmlns:xlink="http://www.w3.org/1999/xlink" x="0px" y="0px"
	 viewBox="0 0 64 64" enable-background="new 0 0 64 64" xml:space="preserve">
<g id="Captions">
</g>
<g id="Icons">
	<g>
		<g>
			<path fill="#F0F0F0" d="M8,14v34c0,0.552,0.448,1,1,1h46c0.552,0,1-0.448,1-1V14H8z"/>
		</g>
		<g>
			<path fill="#D2D2D2" d="M50.57,44.83L48.17,49h-2.39l-1.14-0.66c-0.2,0.22-0.41,0.44-0.62,0.66H19.98
				c-0.21-0.22-0.42-0.44-0.62-0.66L18.22,49h-2.39l-2.4-4.17c-0.28-0.47-0.11-1.08,0.37-1.36l2.05-1.19C15.3,40.62,15,38.85,15,37
				c0-1.85,0.3-3.62,0.85-5.28l-2.05-1.19c-0.48-0.28-0.65-0.89-0.37-1.36l2.5-4.34c0.28-0.47,0.89-0.64,1.37-0.36l2.06,1.19
				c2.37-2.64,5.54-4.54,9.14-5.3V18c0-0.55,0.45-1,1-1h5c0.55,0,1,0.45,1,1v2.36c3.6,0.76,6.77,2.66,9.14,5.3l2.06-1.19
				c0.48-0.28,1.09-0.11,1.37,0.36l2.5,4.34c0.28,0.47,0.11,1.08-0.37,1.36l-2.05,1.19C48.7,33.38,49,35.15,49,37
				c0,1.85-0.3,3.62-0.85,5.28l2.05,1.19C50.68,43.75,50.85,44.36,50.57,44.83z"/>
		</g>
		<g>
			<path fill="#FAB400" d="M8,9v5h48V9c0-0.552-0.448-1-1-1H9C8.448,8,8,8.448,8,9z"/>
		</g>
		<g>
			<circle fill="#C80A50" cx="53" cy="11" r="1"/>
		</g>
		<g>
			<circle fill="#00A0C8" cx="50" cy="11" r="1"/>
		</g>
		<g>
			<circle fill="#0A5078" cx="47" cy="11" r="1"/>
		</g>
		<g>
			<path fill="#0A5078" d="M22,12H11c-0.553,0-1-0.447-1-1s0.447-1,1-1h11c0.553,0,1,0.447,1,1S22.553,12,22,12z"/>
		</g>
		<g>
			<path fill="#00A0C8" d="M49,36c0-1.846-0.304-3.62-0.848-5.284l2.052-1.185c0.478-0.276,0.642-0.888,0.366-1.366l-2.5-4.33
				c-0.276-0.478-0.888-0.642-1.366-0.366l-2.064,1.192c-2.369-2.639-5.539-4.542-9.14-5.296V17c0-0.552-0.448-1-1-1h-5
				c-0.552,0-1,0.448-1,1v2.364c-3.601,0.754-6.771,2.657-9.14,5.296l-2.064-1.192c-0.478-0.276-1.09-0.112-1.366,0.366l-2.5,4.33
				c-0.276,0.478-0.112,1.09,0.366,1.366l2.052,1.185C15.304,32.38,15,34.154,15,36s0.304,3.619,0.848,5.284l-2.052,1.185
				c-0.478,0.276-0.642,0.888-0.366,1.366l2.5,4.33c0.276,0.478,0.888,0.642,1.366,0.366l2.064-1.192
				c2.369,2.639,5.539,4.542,9.14,5.296V55c0,0.552,0.448,1,1,1h5c0.552,0,1-0.448,1-1v-2.364c3.601-0.754,6.771-2.657,9.14-5.296
				l2.064,1.192c0.478,0.276,1.09,0.112,1.366-0.366l2.5-4.33c0.276-0.478,0.112-1.09-0.366-1.366l-2.052-1.185
				C48.696,39.619,49,37.846,49,36z"/>
		</g>
		<g>
			<circle fill="#0082AA" cx="32" cy="37" r="14"/>
		</g>
		<g>
			<circle fill="#FAB400" cx="32" cy="36" r="14"/>
		</g>
		<g>
			<circle fill="#F0F0F0" cx="32" cy="36" r="12"/>
		</g>
		<g>
			<path fill="#D2D2D2" d="M38,34v-3c0-0.552-0.448-1-1-1H27c-0.552,0-1,0.448-1,1v3c0,0.552,0.448,1,1,1c-0.552,0-1,0.448-1,1v3
				c0,0.552,0.448,1,1,1c-0.552,0-1,0.448-1,1v3c0,0.552,0.448,1,1,1h10c0.552,0,1-0.448,1-1v-3c0-0.552-0.448-1-1-1
				c0.552,0,1-0.448,1-1v-3c0-0.552-0.448-1-1-1C37.552,35,38,34.552,38,34z"/>
		</g>
		<g>
			<path fill="#D2D2D2" d="M44,36c0,0.17,0,0.33-0.02,0.5C43.73,30.11,38.45,25,32,25s-11.73,5.11-11.98,11.5
				C20,36.33,20,36.17,20,36c0-6.62,5.38-12,12-12S44,29.38,44,36z"/>
		</g>
		<g>
			<path fill="#0A5078" d="M26,40v3c0,0.552,0.448,1,1,1h10c0.552,0,1-0.448,1-1v-3c0-0.552-0.448-1-1-1H27
				C26.448,39,26,39.448,26,40z"/>
		</g>
		<g>
			<path fill="#00A0C8" d="M26,35v3c0,0.552,0.448,1,1,1h10c0.552,0,1-0.448,1-1v-3c0-0.552-0.448-1-1-1H27
				C26.448,34,26,34.448,26,35z"/>
		</g>
		<g>
			<path fill="#C80A50" d="M26,30v3c0,0.552,0.448,1,1,1h10c0.552,0,1-0.448,1-1v-3c0-0.552-0.448-1-1-1H27
				C26.448,29,26,29.448,26,30z"/>
		</g>
		<g>
			<path fill="#A00028" d="M29,32.5h-1c-0.553,0-1-0.447-1-1s0.447-1,1-1h1c0.553,0,1,0.447,1,1S29.553,32.5,29,32.5z"/>
		</g>
		<g>
			<path fill="#A00028" d="M36,32.5h-3c-0.553,0-1-0.447-1-1s0.447-1,1-1h3c0.553,0,1,0.447,1,1S36.553,32.5,36,32.5z"/>
		</g>
		<g>
			<path fill="#0082AA" d="M36,37.5h-3c-0.553,0-1-0.447-1-1s0.447-1,1-1h3c0.553,0,1,0.447,1,1S36.553,37.5,36,37.5z"/>
		</g>
		<g>
			<path fill="#00325A" d="M36,42.5h-3c-0.553,0-1-0.447-1-1s0.447-1,1-1h3c0.553,0,1,0.447,1,1S36.553,42.5,36,42.5z"/>
		</g>
		<g>
			<path fill="#0082AA" d="M29,37.5h-1c-0.553,0-1-0.447-1-1s0.447-1,1-1h1c0.553,0,1,0.447,1,1S29.553,37.5,29,37.5z"/>
		</g>
		<g>
			<path fill="#00325A" d="M29,42.5h-1c-0.553,0-1-0.447-1-1s0.447-1,1-1h1c0.553,0,1,0.447,1,1S29.553,42.5,29,42.5z"/>
		</g>
	</g>
</g>
</svg>
