<?xml version="1.0" encoding="utf-8"?>
<!-- Generator: Adobe Illustrator 24.0.0, SVG Export Plug-In . SVG Version: 6.00 Build 0)  -->
<svg version="1.1" xmlns="http://www.w3.org/2000/svg" xmlns:xlink="http://www.w3.org/1999/xlink" x="0px" y="0px"
	 viewBox="0 0 64 64" enable-background="new 0 0 64 64" xml:space="preserve">
<g id="Captions">
</g>
<g id="Icons">
	<g>
		<g>
			<path fill="#004E79" d="M52,52H12V27c0-1.105,0.895-2,2-2h36c1.105,0,2,0.895,2,2V52z"/>
		</g>
		<g>
			<path fill="#FAB400" d="M50.18,28v20c0,0.55-0.45,1-1,1H14.82c-0.55,0-1-0.45-1-1V28c0-0.55,0.45-1,1-1h34.36
				C49.73,27,50.18,27.45,50.18,28z"/>
		</g>
		<g>
			<path fill="#DC9600" d="M48,27v19c0,0.55-0.45,1-1,1H17c-0.55,0-1-0.45-1-1V27H48z"/>
		</g>
		<g>
			<path fill="#DC9600" d="M50.18,28v1c0-0.55-0.45-1-1-1H14.82c-0.55,0-1,0.45-1,1v-1c0-0.55,0.45-1,1-1h34.36
				C49.73,27,50.18,27.45,50.18,28z"/>
		</g>
		<g>
			<path fill="#F0F0F0" d="M48,14v31c0,0.552-0.448,1-1,1H17c-0.552,0-1-0.448-1-1V14H48z"/>
		</g>
		<g>
			<path fill="#C80A50" d="M48,9v5H16V9c0-0.552,0.448-1,1-1h30C47.552,8,48,8.448,48,9z"/>
		</g>
		<g>
			<circle fill="#F0F0F0" cx="39" cy="11" r="1"/>
		</g>
		<g>
			<circle fill="#FAB400" cx="42" cy="11" r="1"/>
		</g>
		<g>
			<circle fill="#00A0C8" cx="45" cy="11" r="1"/>
		</g>
		<g>
			<path fill="#F0F0F0" d="M18,11L18,11c0,0.552,0.448,1,1,1h7c0.552,0,1-0.448,1-1v0c0-0.552-0.448-1-1-1h-7
				C18.448,10,18,10.448,18,11z"/>
		</g>
		<g>
			<path fill="#FAB400" d="M19,17v10c0,0.552,0.448,1,1,1h24c0.552,0,1-0.448,1-1V17c0-0.552-0.448-1-1-1H20
				C19.448,16,19,16.448,19,17z"/>
		</g>
		<g>
			<g>
				<path fill="#00A0C8" d="M19,31v4c0,0.552,0.448,1,1,1h5c0.552,0,1-0.448,1-1v-4c0-0.552-0.448-1-1-1h-5
					C19.448,30,19,30.448,19,31z"/>
			</g>
			<g>
				<path fill="#C80A50" d="M19,39v4c0,0.552,0.448,1,1,1h5c0.552,0,1-0.448,1-1v-4c0-0.552-0.448-1-1-1h-5
					C19.448,38,19,38.448,19,39z"/>
			</g>
			<g>
				<path fill="#D2D2D2" d="M44,32H29c-0.552,0-1-0.447-1-1s0.448-1,1-1h15c0.552,0,1,0.447,1,1S44.552,32,44,32z"/>
			</g>
			<g>
				<path fill="#D2D2D2" d="M44,36H29c-0.552,0-1-0.447-1-1s0.448-1,1-1h15c0.552,0,1,0.447,1,1S44.552,36,44,36z"/>
			</g>
			<g>
				<path fill="#D2D2D2" d="M44,40H29c-0.552,0-1-0.447-1-1s0.448-1,1-1h15c0.552,0,1,0.447,1,1S44.552,40,44,40z"/>
			</g>
			<g>
				<path fill="#D2D2D2" d="M44,44H29c-0.552,0-1-0.447-1-1s0.448-1,1-1h15c0.552,0,1,0.447,1,1S44.552,44,44,44z"/>
			</g>
		</g>
		<g>
			<g>
				<path fill="#0A5078" d="M36,26c-0.226,0-0.453-0.076-0.64-0.231c-0.424-0.354-0.481-0.984-0.128-1.409L37.198,22l-1.966-2.359
					c-0.354-0.425-0.296-1.056,0.128-1.409c0.424-0.353,1.054-0.297,1.408,0.128l2.5,3c0.309,0.371,0.309,0.91,0,1.281l-2.5,3
					C36.57,25.878,36.286,26,36,26z"/>
			</g>
			<g>
				<path fill="#0A5078" d="M28,26c-0.287,0-0.571-0.122-0.769-0.359l-2.5-3c-0.309-0.371-0.309-0.91,0-1.281l2.5-3
					c0.354-0.424,0.983-0.48,1.408-0.128c0.424,0.354,0.481,0.984,0.128,1.409L26.802,22l1.966,2.359
					c0.354,0.425,0.296,1.056-0.128,1.409C28.453,25.924,28.226,26,28,26z"/>
			</g>
			<g>
				<path fill="#0A5078" d="M31,26c-0.104,0-0.211-0.017-0.316-0.052c-0.524-0.174-0.807-0.74-0.632-1.265l2-6
					c0.174-0.523,0.739-0.809,1.265-0.632c0.524,0.174,0.807,0.74,0.632,1.265l-2,6C31.809,25.735,31.419,26,31,26z"/>
			</g>
		</g>
		<g>
			<path fill="#00A0CA" d="M56,52v1c0,1.657-1.343,3-3,3H11c-1.657,0-3-1.343-3-3v-1c0-0.552,0.448-1,1-1h46
				C55.552,51,56,51.448,56,52z"/>
		</g>
		<g>
			<path fill="#0082AA" d="M36,53h-8c-1.105,0-2-0.895-2-2v0h12v0C38,52.105,37.105,53,36,53z"/>
		</g>
	</g>
</g>
</svg>
