<?xml version="1.0" encoding="utf-8"?>
<!-- Generator: Adobe Illustrator 24.0.0, SVG Export Plug-In . SVG Version: 6.00 Build 0)  -->
<svg version="1.1" xmlns="http://www.w3.org/2000/svg" xmlns:xlink="http://www.w3.org/1999/xlink" x="0px" y="0px"
	 viewBox="0 0 64 64" enable-background="new 0 0 64 64" xml:space="preserve">
<g id="Captions">
</g>
<g id="Icons">
	<g>
		<g>
			<rect x="30.5" y="15" fill="#00A0C8" width="3" height="38"/>
		</g>
		<g>
			<rect x="30.5" y="45" fill="#0082AA" width="3" height="2"/>
		</g>
		<g>
			<rect x="30.5" y="35" fill="#0082AA" width="3" height="2"/>
		</g>
		<g>
			<rect x="30.5" y="25" fill="#0082AA" width="3" height="2"/>
		</g>
		<g>
			<rect x="30.5" y="15" fill="#0082AA" width="3" height="2"/>
		</g>
		<g>
			<rect x="8" y="52.5" fill="#00A0C8" width="48" height="3"/>
		</g>
		<g>
			<path fill="#FAB400" d="M45,26H19c-0.552,0-1-0.448-1-1v-6c0-0.552,0.448-1,1-1h26c0.552,0,1,0.448,1,1v6
				C46,25.552,45.552,26,45,26z"/>
		</g>
		<g>
			<circle fill="#0A5078" cx="42" cy="22" r="1"/>
		</g>
		<g>
			<path fill="#00325A" d="M43,22c0,0.18-0.05,0.35-0.14,0.5C42.69,22.2,42.37,22,42,22s-0.69,0.2-0.86,0.5
				C41.05,22.35,41,22.18,41,22c0-0.55,0.45-1,1-1S43,21.45,43,22z"/>
		</g>
		<g>
			<path fill="#0A5078" d="M38,23H22c-0.552,0-1-0.448-1-1v0c0-0.552,0.448-1,1-1h16c0.552,0,1,0.448,1,1v0
				C39,22.552,38.552,23,38,23z"/>
		</g>
		<g>
			<path fill="#00325A" d="M39,22c0,0.18-0.05,0.35-0.14,0.5C38.69,22.2,38.37,22,38,22H22c-0.37,0-0.69,0.2-0.86,0.5
				C21.05,22.35,21,22.18,21,22c0-0.55,0.45-1,1-1h16C38.55,21,39,21.45,39,22z"/>
		</g>
		<g>
			<path fill="#DC9600" d="M46,24v1c0,0.55-0.45,1-1,1H19c-0.55,0-1-0.45-1-1v-1c0,0.55,0.45,1,1,1h26C45.55,25,46,24.55,46,24z"/>
		</g>
		<g>
			<path fill="#FAB400" d="M45,46H19c-0.552,0-1-0.448-1-1v-6c0-0.552,0.448-1,1-1h26c0.552,0,1,0.448,1,1v6
				C46,45.552,45.552,46,45,46z"/>
		</g>
		<g>
			<circle fill="#0A5078" cx="42" cy="42" r="1"/>
		</g>
		<g>
			<path fill="#00325A" d="M43,42c0,0.18-0.05,0.35-0.14,0.5C42.69,42.2,42.37,42,42,42s-0.69,0.2-0.86,0.5
				C41.05,42.35,41,42.18,41,42c0-0.55,0.45-1,1-1S43,41.45,43,42z"/>
		</g>
		<g>
			<path fill="#0A5078" d="M38,43H22c-0.552,0-1-0.448-1-1l0,0c0-0.552,0.448-1,1-1h16c0.552,0,1,0.448,1,1l0,0
				C39,42.552,38.552,43,38,43z"/>
		</g>
		<g>
			<path fill="#00325A" d="M39,42c0,0.18-0.05,0.35-0.14,0.5C38.69,42.2,38.37,42,38,42H22c-0.37,0-0.69,0.2-0.86,0.5
				C21.05,42.35,21,42.18,21,42c0-0.55,0.45-1,1-1h16C38.55,41,39,41.45,39,42z"/>
		</g>
		<g>
			<path fill="#DC9600" d="M46,44v1c0,0.55-0.45,1-1,1H19c-0.55,0-1-0.45-1-1v-1c0,0.55,0.45,1,1,1h26C45.55,45,46,44.55,46,44z"/>
		</g>
		<g>
			<g>
				<path fill="#0A5078" d="M46,9v6c0,0.55-0.45,1-1,1H19c-0.55,0-1-0.45-1-1V9c0-0.55,0.45-1,1-1h26C45.55,8,46,8.45,46,9z"/>
			</g>
			<g>
				<circle fill="#F0F0F0" cx="42" cy="12" r="1"/>
			</g>
			<g>
				<path fill="#D2D2D2" d="M43,12c0,0.18-0.05,0.35-0.14,0.5C42.69,12.2,42.37,12,42,12s-0.69,0.2-0.86,0.5
					C41.05,12.35,41,12.18,41,12c0-0.55,0.45-1,1-1S43,11.45,43,12z"/>
			</g>
			<g>
				<path fill="#FAB400" d="M38,13H22c-0.552,0-1-0.448-1-1v0c0-0.552,0.448-1,1-1h16c0.552,0,1,0.448,1,1v0
					C39,12.552,38.552,13,38,13z"/>
			</g>
			<g>
				<path fill="#F0F0F0" d="M38,13H22c-0.552,0-1-0.448-1-1v0c0-0.552,0.448-1,1-1h16c0.552,0,1,0.448,1,1v0
					C39,12.552,38.552,13,38,13z"/>
			</g>
			<g>
				<path fill="#D2D2D2" d="M39,12c0,0.18-0.05,0.35-0.14,0.5C38.69,12.2,38.37,12,38,12H22c-0.37,0-0.69,0.2-0.86,0.5
					C21.05,12.35,21,12.18,21,12c0-0.55,0.45-1,1-1h16C38.55,11,39,11.45,39,12z"/>
			</g>
			<g>
				<path fill="#00325A" d="M46,14v1c0,0.55-0.45,1-1,1H19c-0.55,0-1-0.45-1-1v-1c0,0.55,0.45,1,1,1h26C45.55,15,46,14.55,46,14z"/>
			</g>
		</g>
		<g>
			<g>
				<path fill="#0A5078" d="M46,29v6c0,0.55-0.45,1-1,1H19c-0.55,0-1-0.45-1-1v-6c0-0.55,0.45-1,1-1h26C45.55,28,46,28.45,46,29z"/>
			</g>
			<g>
				<circle fill="#F0F0F0" cx="42" cy="32" r="1"/>
			</g>
			<g>
				<path fill="#D2D2D2" d="M43,32c0,0.18-0.05,0.35-0.14,0.5C42.69,32.2,42.37,32,42,32s-0.69,0.2-0.86,0.5
					C41.05,32.35,41,32.18,41,32c0-0.55,0.45-1,1-1S43,31.45,43,32z"/>
			</g>
			<g>
				<path fill="#FAB400" d="M38,33H22c-0.552,0-1-0.448-1-1v0c0-0.552,0.448-1,1-1h16c0.552,0,1,0.448,1,1v0
					C39,32.552,38.552,33,38,33z"/>
			</g>
			<g>
				<path fill="#F0F0F0" d="M38,33H22c-0.552,0-1-0.448-1-1v0c0-0.552,0.448-1,1-1h16c0.552,0,1,0.448,1,1v0
					C39,32.552,38.552,33,38,33z"/>
			</g>
			<g>
				<path fill="#D2D2D2" d="M39,32c0,0.18-0.05,0.35-0.14,0.5C38.69,32.2,38.37,32,38,32H22c-0.37,0-0.69,0.2-0.86,0.5
					C21.05,32.35,21,32.18,21,32c0-0.55,0.45-1,1-1h16C38.55,31,39,31.45,39,32z"/>
			</g>
			<g>
				<path fill="#00325A" d="M46,34v1c0,0.55-0.45,1-1,1H19c-0.55,0-1-0.45-1-1v-1c0,0.55,0.45,1,1,1h26C45.55,35,46,34.55,46,34z"/>
			</g>
		</g>
		<g>
			<path fill="#C80A50" d="M34,52v-1c0-0.552-0.448-1-1-1h-2c-0.552,0-1,0.448-1,1v1h-1c-0.552,0-1,0.448-1,1v2c0,0.552,0.448,1,1,1
				h6c0.552,0,1-0.448,1-1v-2c0-0.552-0.448-1-1-1H34z"/>
		</g>
		<g>
			<g>
				<path fill="#00A0C8" d="M55,33h-2c-0.553,0-1-0.448-1-1s0.447-1,1-1h2c0.553,0,1,0.448,1,1S55.553,33,55,33z"/>
			</g>
			<g>
				<path fill="#C80A50" d="M52.293,38.707l-1.414-1.414c-0.391-0.391-0.391-1.023,0-1.414s1.023-0.391,1.414,0l1.414,1.414
					c0.391,0.391,0.391,1.023,0,1.414C53.316,39.098,52.684,39.098,52.293,38.707z"/>
			</g>
			<g>
				<path fill="#FAB400" d="M50.879,28.121c-0.391-0.391-0.391-1.023,0-1.414l1.414-1.414c0.391-0.391,1.023-0.391,1.414,0
					s0.391,1.023,0,1.414l-1.414,1.414C51.902,28.512,51.27,28.512,50.879,28.121z"/>
			</g>
		</g>
		<g>
			<g>
				<path fill="#00A0C8" d="M9,33h2c0.553,0,1-0.448,1-1s-0.447-1-1-1H9c-0.553,0-1,0.448-1,1C8,32.552,8.447,33,9,33z"/>
			</g>
			<g>
				<path fill="#C80A50" d="M11.707,38.707l1.414-1.414c0.391-0.391,0.391-1.023,0-1.414s-1.023-0.391-1.414,0l-1.414,1.414
					c-0.391,0.391-0.391,1.023,0,1.414C10.684,39.098,11.316,39.098,11.707,38.707z"/>
			</g>
			<g>
				<path fill="#FAB400" d="M13.121,28.121c0.391-0.391,0.391-1.023,0-1.414l-1.414-1.414c-0.391-0.391-1.023-0.391-1.414,0
					c-0.391,0.391-0.391,1.023,0,1.414l1.414,1.414C12.098,28.512,12.73,28.512,13.121,28.121z"/>
			</g>
		</g>
	</g>
</g>
</svg>
