<?xml version="1.0" encoding="utf-8"?>
<!-- Generator: Adobe Illustrator 24.0.0, SVG Export Plug-In . SVG Version: 6.00 Build 0)  -->
<svg version="1.1" xmlns="http://www.w3.org/2000/svg" xmlns:xlink="http://www.w3.org/1999/xlink" x="0px" y="0px"
	 viewBox="0 0 64 64" enable-background="new 0 0 64 64" xml:space="preserve">
<g id="Captions">
</g>
<g id="Icons">
	<g>
		<g>
			<g>
				<path fill="#004E79" d="M52,52H12V27c0-1.105,0.895-2,2-2h36c1.105,0,2,0.895,2,2V52z"/>
			</g>
			<g>
				<path fill="#FAB400" d="M50.18,28v20c0,0.55-0.45,1-1,1H14.82c-0.55,0-1-0.45-1-1V28c0-0.55,0.45-1,1-1h34.36
					C49.73,27,50.18,27.45,50.18,28z"/>
			</g>
			<g>
				<path fill="#DC9600" d="M48,27v20c0,0.55-0.45,1-1,1H17c-0.55,0-1-0.45-1-1V27H48z"/>
			</g>
			<g>
				<path fill="#DC9600" d="M50.18,28v1c0-0.55-0.45-1-1-1H14.82c-0.55,0-1,0.45-1,1v-1c0-0.55,0.45-1,1-1h34.36
					C49.73,27,50.18,27.45,50.18,28z"/>
			</g>
			<g>
				<path fill="#00A0CA" d="M56,52v1c0,1.657-1.343,3-3,3H11c-1.657,0-3-1.343-3-3v-1c0-0.552,0.448-1,1-1h46
					C55.552,51,56,51.448,56,52z"/>
			</g>
			<g>
				<path fill="#0082AA" d="M36,53h-8c-1.105,0-2-0.895-2-2v0h12v0C38,52.105,37.105,53,36,53z"/>
			</g>
		</g>
		<g>
			<path fill="#F0F0F0" d="M48,14v32c0,0.552-0.448,1-1,1H17c-0.552,0-1-0.448-1-1V14H48z"/>
		</g>
		<g>
			<path fill="#0A5078" d="M48,9v5H16V9c0-0.552,0.448-1,1-1h30C47.552,8,48,8.448,48,9z"/>
		</g>
		<g>
			<circle fill="#00A0C8" cx="39" cy="11" r="1"/>
		</g>
		<g>
			<circle fill="#FAB400" cx="42" cy="11" r="1"/>
		</g>
		<g>
			<circle fill="#C80A50" cx="45" cy="11" r="1"/>
		</g>
		<g>
			<path fill="#F0F0F0" d="M18,11L18,11c0,0.552,0.448,1,1,1h7c0.552,0,1-0.448,1-1v0c0-0.552-0.448-1-1-1h-7
				C18.448,10,18,10.448,18,11z"/>
		</g>
		<g>
			<g>
				<g>
					<g>
						<g>
							<path fill="#0A5078" d="M35,24.25c-0.552,0-1-0.447-1-1v-6c0-0.553,0.448-1,1-1s1,0.447,1,1v6
								C36,23.803,35.552,24.25,35,24.25z"/>
						</g>
					</g>
					<g>
						<path fill="#0A5078" d="M33.501,19.25c-0.323,0-0.64-0.156-0.833-0.445c-0.306-0.46-0.182-1.08,0.277-1.387l1.5-1
							c0.458-0.306,1.08-0.182,1.387,0.277c0.306,0.46,0.182,1.08-0.277,1.387l-1.5,1C33.884,19.195,33.691,19.25,33.501,19.25z"/>
					</g>
					<g>
						<g>
							<path fill="#0A5078" d="M36.5,24.25h-3c-0.552,0-1-0.447-1-1s0.448-1,1-1h3c0.552,0,1,0.447,1,1S37.052,24.25,36.5,24.25z"/>
						</g>
					</g>
				</g>
				<g>
					<g>
						<g>
							<path fill="#0A5078" d="M22,24.25c-0.552,0-1-0.447-1-1v-6c0-0.553,0.448-1,1-1s1,0.447,1,1v6
								C23,23.803,22.552,24.25,22,24.25z"/>
						</g>
					</g>
					<g>
						<path fill="#0A5078" d="M20.501,19.25c-0.323,0-0.64-0.156-0.833-0.445c-0.306-0.46-0.182-1.08,0.277-1.387l1.5-1
							c0.459-0.306,1.08-0.182,1.387,0.277c0.306,0.46,0.182,1.08-0.277,1.387l-1.5,1C20.884,19.195,20.691,19.25,20.501,19.25z"/>
					</g>
					<g>
						<g>
							<path fill="#0A5078" d="M23.5,24.25h-3c-0.552,0-1-0.447-1-1s0.448-1,1-1h3c0.552,0,1,0.447,1,1S24.052,24.25,23.5,24.25z"/>
						</g>
					</g>
				</g>
				<g>
					<g>
						<path fill="#0A5078" d="M28.5,24.25c-1.654,0-3-1.346-3-3v-2c0-1.654,1.346-3,3-3s3,1.346,3,3v2
							C31.5,22.904,30.154,24.25,28.5,24.25z M28.5,18.25c-0.551,0-1,0.448-1,1v2c0,0.552,0.449,1,1,1s1-0.448,1-1v-2
							C29.5,18.698,29.051,18.25,28.5,18.25z"/>
					</g>
				</g>
				<g>
					<g>
						<path fill="#0A5078" d="M41.5,24.25c-1.654,0-3-1.346-3-3v-2c0-1.654,1.346-3,3-3s3,1.346,3,3v2
							C44.5,22.904,43.154,24.25,41.5,24.25z M41.5,18.25c-0.551,0-1,0.448-1,1v2c0,0.552,0.449,1,1,1s1-0.448,1-1v-2
							C42.5,18.698,42.051,18.25,41.5,18.25z"/>
					</g>
				</g>
			</g>
			<g>
				<g>
					<g>
						<g>
							<path fill="#0A5078" d="M35,44.25c-0.552,0-1-0.447-1-1v-6c0-0.553,0.448-1,1-1s1,0.447,1,1v6
								C36,43.803,35.552,44.25,35,44.25z"/>
						</g>
					</g>
					<g>
						<path fill="#0A5078" d="M33.501,39.25c-0.323,0-0.64-0.156-0.833-0.445c-0.306-0.46-0.182-1.08,0.277-1.387l1.5-1
							c0.458-0.307,1.08-0.183,1.387,0.277c0.306,0.46,0.182,1.08-0.277,1.387l-1.5,1C33.884,39.195,33.691,39.25,33.501,39.25z"/>
					</g>
					<g>
						<g>
							<path fill="#0A5078" d="M36.5,44.25h-3c-0.552,0-1-0.447-1-1s0.448-1,1-1h3c0.552,0,1,0.447,1,1S37.052,44.25,36.5,44.25z"/>
						</g>
					</g>
				</g>
				<g>
					<g>
						<g>
							<path fill="#0A5078" d="M22,44.25c-0.552,0-1-0.447-1-1v-6c0-0.553,0.448-1,1-1s1,0.447,1,1v6
								C23,43.803,22.552,44.25,22,44.25z"/>
						</g>
					</g>
					<g>
						<path fill="#0A5078" d="M20.501,39.25c-0.323,0-0.64-0.156-0.833-0.445c-0.306-0.46-0.182-1.08,0.277-1.387l1.5-1
							c0.459-0.307,1.08-0.183,1.387,0.277c0.306,0.46,0.182,1.08-0.277,1.387l-1.5,1C20.884,39.195,20.691,39.25,20.501,39.25z"/>
					</g>
					<g>
						<g>
							<path fill="#0A5078" d="M23.5,44.25h-3c-0.552,0-1-0.447-1-1s0.448-1,1-1h3c0.552,0,1,0.447,1,1S24.052,44.25,23.5,44.25z"/>
						</g>
					</g>
				</g>
				<g>
					<g>
						<path fill="#0A5078" d="M28.5,44.25c-1.654,0-3-1.346-3-3v-2c0-1.654,1.346-3,3-3s3,1.346,3,3v2
							C31.5,42.904,30.154,44.25,28.5,44.25z M28.5,38.25c-0.551,0-1,0.448-1,1v2c0,0.552,0.449,1,1,1s1-0.448,1-1v-2
							C29.5,38.698,29.051,38.25,28.5,38.25z"/>
					</g>
				</g>
				<g>
					<g>
						<path fill="#0A5078" d="M41.5,44.25c-1.654,0-3-1.346-3-3v-2c0-1.654,1.346-3,3-3s3,1.346,3,3v2
							C44.5,42.904,43.154,44.25,41.5,44.25z M41.5,38.25c-0.551,0-1,0.448-1,1v2c0,0.552,0.449,1,1,1s1-0.448,1-1v-2
							C42.5,38.698,42.051,38.25,41.5,38.25z"/>
					</g>
				</g>
			</g>
			<g>
				<g>
					<g>
						<g>
							<path fill="#0A5078" d="M29,34c-0.552,0-1-0.447-1-1v-6c0-0.553,0.448-1,1-1s1,0.447,1,1v6C30,33.553,29.552,34,29,34z"/>
						</g>
					</g>
					<g>
						<path fill="#0A5078" d="M27.501,29c-0.323,0-0.64-0.156-0.833-0.445c-0.306-0.46-0.182-1.08,0.277-1.387l1.5-1
							c0.459-0.307,1.08-0.183,1.387,0.277c0.306,0.46,0.182,1.08-0.277,1.387l-1.5,1C27.884,28.945,27.691,29,27.501,29z"/>
					</g>
					<g>
						<g>
							<path fill="#0A5078" d="M30.5,34h-3c-0.552,0-1-0.447-1-1s0.448-1,1-1h3c0.552,0,1,0.447,1,1S31.052,34,30.5,34z"/>
						</g>
					</g>
				</g>
				<g>
					<g>
						<g>
							<path fill="#0A5078" d="M42,34c-0.552,0-1-0.447-1-1v-6c0-0.553,0.448-1,1-1s1,0.447,1,1v6C43,33.553,42.552,34,42,34z"/>
						</g>
					</g>
					<g>
						<path fill="#0A5078" d="M40.501,29c-0.323,0-0.64-0.156-0.833-0.445c-0.306-0.46-0.182-1.08,0.277-1.387l1.5-1
							c0.459-0.307,1.079-0.183,1.387,0.277c0.306,0.46,0.182,1.08-0.277,1.387l-1.5,1C40.884,28.945,40.691,29,40.501,29z"/>
					</g>
					<g>
						<g>
							<path fill="#0A5078" d="M43.5,34h-3c-0.552,0-1-0.447-1-1s0.448-1,1-1h3c0.552,0,1,0.447,1,1S44.052,34,43.5,34z"/>
						</g>
					</g>
				</g>
				<g>
					<g>
						<path fill="#0A5078" d="M22.5,34c-1.654,0-3-1.346-3-3v-2c0-1.654,1.346-3,3-3s3,1.346,3,3v2C25.5,32.654,24.154,34,22.5,34z
							 M22.5,28c-0.551,0-1,0.448-1,1v2c0,0.552,0.449,1,1,1s1-0.448,1-1v-2C23.5,28.448,23.051,28,22.5,28z"/>
					</g>
				</g>
				<g>
					<g>
						<path fill="#0A5078" d="M35.5,34c-1.654,0-3-1.346-3-3v-2c0-1.654,1.346-3,3-3s3,1.346,3,3v2C38.5,32.654,37.154,34,35.5,34z
							 M35.5,28c-0.551,0-1,0.448-1,1v2c0,0.552,0.449,1,1,1s1-0.448,1-1v-2C36.5,28.448,36.051,28,35.5,28z"/>
					</g>
				</g>
			</g>
		</g>
	</g>
</g>
</svg>
