<?xml version="1.0" encoding="utf-8"?>
<!-- Generator: Adobe Illustrator 24.0.0, SVG Export Plug-In . SVG Version: 6.00 Build 0)  -->
<svg version="1.1" xmlns="http://www.w3.org/2000/svg" xmlns:xlink="http://www.w3.org/1999/xlink" x="0px" y="0px"
	 viewBox="0 0 64 64" enable-background="new 0 0 64 64" xml:space="preserve">
<g id="Captions">
</g>
<g id="Icons">
	<g>
		<g>
			<g>
				<polygon fill="#004E79" points="38,57 26,57 27.33,49 36.67,49 				"/>
			</g>
			<g>
				<polygon fill="#002E5B" points="37.17,52 26.84,52 27.33,49 36.67,49 				"/>
			</g>
			<g>
				<path fill="#00A0CA" d="M56,22v27c0,1.1-0.9,2-2,2H10c-1.1,0-2-0.9-2-2V22c0-1.1,0.9-2,2-2h44C55.1,20,56,20.9,56,22z"/>
			</g>
			<g>
				<path fill="#F0F0F0" d="M54,23v21c0,0.55-0.45,1-1,1H11c-0.55,0-1-0.45-1-1V23c0-0.55,0.45-1,1-1h42C53.55,22,54,22.45,54,23z"
					/>
			</g>
			<g>
				<path fill="#D2D2D2" d="M54,23v1c0-0.55-0.45-1-1-1H11c-0.55,0-1,0.45-1,1v-1c0-0.55,0.45-1,1-1h42C53.55,22,54,22.45,54,23z"/>
			</g>
			<g>
				<path fill="#00A0CA" d="M43,60H21c-0.552,0-1-0.448-1-1v-1c0-1.105,0.895-2,2-2h20c1.105,0,2,0.895,2,2v1
					C44,59.552,43.552,60,43,60z"/>
			</g>
		</g>
		<g>
			<path fill="#D2D2D2" d="M52,22v21c0,0.55-0.45,1-1,1H13c-0.55,0-1-0.45-1-1V22H52z"/>
		</g>
		<g>
			<path fill="#0A5078" d="M12,17v25c0,0.552,0.448,1,1,1h38c0.552,0,1-0.448,1-1V17H12z"/>
		</g>
		<g>
			<path fill="#00A0C8" d="M12,13v4h40v-4c0-0.552-0.448-1-1-1H13C12.448,12,12,12.448,12,13z"/>
		</g>
		<g>
			<g>
				<path fill="#C80A50" d="M33,5v2c0,0.553-0.448,1-1,1s-1-0.447-1-1V5c0-0.553,0.448-1,1-1C32.552,4,33,4.447,33,5z"/>
			</g>
			<g>
				<path fill="#FAB400" d="M38.707,7.707l-1.414,1.414c-0.391,0.391-1.023,0.391-1.414,0s-0.391-1.023,0-1.414l1.414-1.414
					c0.391-0.391,1.023-0.391,1.414,0C39.098,6.684,39.098,7.316,38.707,7.707z"/>
			</g>
			<g>
				<path fill="#00A0C8" d="M28.121,9.121c-0.391,0.391-1.023,0.391-1.414,0l-1.414-1.414c-0.391-0.391-0.391-1.023,0-1.414
					s1.023-0.391,1.414,0l1.414,1.414C28.512,8.098,28.512,8.73,28.121,9.121z"/>
			</g>
		</g>
		<g>
			<circle fill="#C80A50" cx="49" cy="14.5" r="1"/>
		</g>
		<g>
			<circle fill="#FAB400" cx="46" cy="14.5" r="1"/>
		</g>
		<g>
			<circle fill="#F0F0F0" cx="43" cy="14.5" r="1"/>
		</g>
		<g>
			<path fill="#F0F0F0" d="M25,15.5H15c-0.553,0-1-0.448-1-1s0.447-1,1-1h10c0.553,0,1,0.448,1,1S25.553,15.5,25,15.5z"/>
		</g>
		<g>
			<path fill="#F0F0F0" d="M17,25c-0.256,0-0.512-0.098-0.707-0.293l-2-2c-0.391-0.391-0.391-1.023,0-1.414l2-2
				c0.391-0.391,1.023-0.391,1.414,0s0.391,1.023,0,1.414L16.414,22l1.293,1.293c0.391,0.391,0.391,1.023,0,1.414
				C17.512,24.902,17.256,25,17,25z"/>
		</g>
		<g>
			<path fill="#F0F0F0" d="M25,25c-0.256,0-0.512-0.098-0.707-0.293c-0.391-0.391-0.391-1.023,0-1.414L25.586,22l-1.293-1.293
				c-0.391-0.391-0.391-1.023,0-1.414s1.023-0.391,1.414,0l2,2c0.391,0.391,0.391,1.023,0,1.414l-2,2C25.512,24.902,25.256,25,25,25
				z"/>
		</g>
		<g>
			<path fill="#F0F0F0" d="M19.999,25c-0.15,0-0.303-0.034-0.446-0.105c-0.494-0.247-0.694-0.848-0.447-1.342l2-4
				c0.248-0.494,0.848-0.694,1.342-0.447s0.694,0.848,0.447,1.342l-2,4C20.719,24.798,20.366,25,19.999,25z"/>
		</g>
		<g>
			<path fill="#F0F0F0" d="M17,41c-0.256,0-0.512-0.098-0.707-0.293l-2-2c-0.391-0.391-0.391-1.023,0-1.414l2-2
				c0.391-0.391,1.023-0.391,1.414,0s0.391,1.023,0,1.414L16.414,38l1.293,1.293c0.391,0.391,0.391,1.023,0,1.414
				C17.512,40.902,17.256,41,17,41z"/>
		</g>
		<g>
			<path fill="#F0F0F0" d="M25,41c-0.256,0-0.512-0.098-0.707-0.293c-0.391-0.391-0.391-1.023,0-1.414L25.586,38l-1.293-1.293
				c-0.391-0.391-0.391-1.023,0-1.414s1.023-0.391,1.414,0l2,2c0.391,0.391,0.391,1.023,0,1.414l-2,2C25.512,40.902,25.256,41,25,41
				z"/>
		</g>
		<g>
			<path fill="#F0F0F0" d="M19.999,41c-0.15,0-0.303-0.034-0.446-0.105c-0.494-0.247-0.694-0.848-0.447-1.342l2-4
				c0.248-0.495,0.848-0.695,1.342-0.447c0.494,0.247,0.694,0.848,0.447,1.342l-2,4C20.719,40.798,20.366,41,19.999,41z"/>
		</g>
		<g>
			<path fill="#C80A50" d="M22,29h-7c-0.553,0-1-0.448-1-1s0.447-1,1-1h7c0.553,0,1,0.448,1,1S22.553,29,22,29z"/>
		</g>
		<g>
			<path fill="#FAB400" d="M48,29H26c-0.553,0-1-0.448-1-1s0.447-1,1-1h22c0.553,0,1,0.448,1,1S48.553,29,48,29z"/>
		</g>
		<g>
			<path fill="#FAB400" d="M40,25h-9c-0.553,0-1-0.448-1-1s0.447-1,1-1h9c0.553,0,1,0.448,1,1S40.553,25,40,25z"/>
		</g>
		<g>
			<path fill="#C80A50" d="M48,25h-4c-0.553,0-1-0.448-1-1s0.447-1,1-1h4c0.553,0,1,0.448,1,1S48.553,25,48,25z"/>
		</g>
		<g>
			<path fill="#FAB400" d="M48,21H31c-0.553,0-1-0.448-1-1s0.447-1,1-1h17c0.553,0,1,0.448,1,1S48.553,21,48,21z"/>
		</g>
		<g>
			<path fill="#C80A50" d="M35,41h-4c-0.553,0-1-0.448-1-1s0.447-1,1-1h4c0.553,0,1,0.448,1,1S35.553,41,35,41z"/>
		</g>
		<g>
			<path fill="#FAB400" d="M48,41h-9c-0.553,0-1-0.448-1-1s0.447-1,1-1h9c0.553,0,1,0.448,1,1S48.553,41,48,41z"/>
		</g>
		<g>
			<path fill="#FAB400" d="M48,37H31c-0.553,0-1-0.448-1-1s0.447-1,1-1h17c0.553,0,1,0.448,1,1S48.553,37,48,37z"/>
		</g>
		<g>
			<path fill="#FAB400" d="M37,33H15c-0.553,0-1-0.448-1-1s0.447-1,1-1h22c0.553,0,1,0.448,1,1S37.553,33,37,33z"/>
		</g>
		<g>
			<path fill="#C80A50" d="M48,33h-7c-0.553,0-1-0.448-1-1s0.447-1,1-1h7c0.553,0,1,0.448,1,1S48.553,33,48,33z"/>
		</g>
		<g>
			<g>
				<path fill="#EFEFEF" d="M49,49h4c0.552,0,1-0.448,1-1l0,0c0-0.552-0.448-1-1-1h-4c-0.552,0-1,0.448-1,1l0,0
					C48,48.552,48.448,49,49,49z"/>
			</g>
			<g>
				<circle fill="#EFEFEF" cx="46" cy="48" r="1"/>
			</g>
		</g>
	</g>
</g>
</svg>
