<?xml version="1.0" encoding="utf-8"?>
<!-- Generator: Adobe Illustrator 24.0.0, SVG Export Plug-In . SVG Version: 6.00 Build 0)  -->
<svg version="1.1" xmlns="http://www.w3.org/2000/svg" xmlns:xlink="http://www.w3.org/1999/xlink" x="0px" y="0px"
	 viewBox="0 0 64 64" enable-background="new 0 0 64 64" xml:space="preserve">
<g id="Captions">
</g>
<g id="Icons">
	<g>
		<g>
			<path fill="#F0F0F0" d="M8,14v34c0,0.552,0.448,1,1,1h46c0.552,0,1-0.448,1-1V14H8z"/>
		</g>
		<g>
			<path fill="#D2D2D2" d="M50.57,44.83L48.17,49h-2.39l-1.14-0.66c-0.2,0.22-0.41,0.44-0.62,0.66H19.98
				c-0.21-0.22-0.42-0.44-0.62-0.66L18.22,49h-2.39l-2.4-4.17c-0.28-0.47-0.11-1.08,0.37-1.36l2.05-1.19C15.3,40.62,15,38.85,15,37
				c0-1.85,0.3-3.62,0.85-5.28l-2.05-1.19c-0.48-0.28-0.65-0.89-0.37-1.36l2.5-4.34c0.28-0.47,0.89-0.64,1.37-0.36l2.06,1.19
				c2.37-2.64,5.54-4.54,9.14-5.3V18c0-0.55,0.45-1,1-1h5c0.55,0,1,0.45,1,1v2.36c3.6,0.76,6.77,2.66,9.14,5.3l2.06-1.19
				c0.48-0.28,1.09-0.11,1.37,0.36l2.5,4.34c0.28,0.47,0.11,1.08-0.37,1.36l-2.05,1.19C48.7,33.38,49,35.15,49,37
				c0,1.85-0.3,3.62-0.85,5.28l2.05,1.19C50.68,43.75,50.85,44.36,50.57,44.83z"/>
		</g>
		<g>
			<path fill="#0A5078" d="M8,9v5h48V9c0-0.552-0.448-1-1-1H9C8.448,8,8,8.448,8,9z"/>
		</g>
		<g>
			<circle fill="#C80A50" cx="53" cy="11" r="1"/>
		</g>
		<g>
			<circle fill="#00A0C8" cx="50" cy="11" r="1"/>
		</g>
		<g>
			<circle fill="#FAB400" cx="47" cy="11" r="1"/>
		</g>
		<g>
			<path fill="#F0F0F0" d="M22,12H11c-0.552,0-1-0.448-1-1s0.448-1,1-1h11c0.552,0,1,0.448,1,1S22.552,12,22,12z"/>
		</g>
		<g>
			<path fill="#00A0C8" d="M49,36c0-1.846-0.304-3.62-0.848-5.284l2.052-1.185c0.478-0.276,0.642-0.888,0.366-1.366l-2.5-4.33
				c-0.276-0.478-0.888-0.642-1.366-0.366l-2.064,1.192c-2.369-2.639-5.539-4.542-9.14-5.296V17c0-0.552-0.448-1-1-1h-5
				c-0.552,0-1,0.448-1,1v2.364c-3.601,0.754-6.771,2.657-9.14,5.296l-2.064-1.192c-0.478-0.276-1.09-0.112-1.366,0.366l-2.5,4.33
				c-0.276,0.478-0.112,1.09,0.366,1.366l2.052,1.185C15.304,32.38,15,34.154,15,36s0.304,3.619,0.848,5.284l-2.052,1.185
				c-0.478,0.276-0.642,0.888-0.366,1.366l2.5,4.33c0.276,0.478,0.888,0.642,1.366,0.366l2.064-1.192
				c2.369,2.639,5.539,4.542,9.14,5.296V55c0,0.552,0.448,1,1,1h5c0.552,0,1-0.448,1-1v-2.364c3.601-0.754,6.771-2.657,9.14-5.296
				l2.064,1.192c0.478,0.276,1.09,0.112,1.366-0.366l2.5-4.33c0.276-0.478,0.112-1.09-0.366-1.366l-2.052-1.185
				C48.696,39.619,49,37.846,49,36z"/>
		</g>
		<g>
			<circle fill="#0082AA" cx="32" cy="37" r="14"/>
		</g>
		<g>
			<circle fill="#0A5078" cx="32" cy="36" r="14"/>
		</g>
		<g>
			<circle fill="#00325A" cx="32" cy="37" r="12"/>
		</g>
		<g>
			<circle fill="#F0F0F0" cx="32" cy="36" r="12"/>
		</g>
		<g>
			<circle fill="#D2D2D2" cx="29" cy="44" r="1"/>
		</g>
		<g>
			<circle fill="#D2D2D2" cx="32" cy="44" r="1"/>
		</g>
		<g>
			<circle fill="#D2D2D2" cx="35" cy="44" r="1"/>
		</g>
		<g>
			<path fill="#D2D2D2" d="M38.207,30.793c-0.391-0.391-1.023-0.391-1.414,0l-4.281,4.281C32.347,35.031,32.178,35,32,35
				c-1.105,0-2,0.895-2,2c0,1.105,0.895,2,2,2s2-0.895,2-2c0-0.178-0.031-0.347-0.074-0.512l4.281-4.281
				C38.598,31.816,38.598,31.184,38.207,30.793z"/>
		</g>
		<g>
			<path fill="#C80A50" d="M32,36H20c0-3.31,1.34-6.31,3.52-8.48L32,36z"/>
		</g>
		<g>
			<path fill="#FAB400" d="M40.48,27.52L32,36l-8.48-8.48C25.69,25.34,28.69,24,32,24S38.31,25.34,40.48,27.52z"/>
		</g>
		<g>
			<path fill="#00A0C8" d="M44,36H32l8.48-8.48C42.66,29.69,44,32.69,44,36z"/>
		</g>
		<g>
			<g>
				<path fill="#0082AA" d="M38.21,32.21L34.42,36H32l5.5-5.5c0.26,0,0.52,0.1,0.71,0.29C38.6,31.18,38.6,31.82,38.21,32.21z"/>
			</g>
		</g>
		<g>
			<circle fill="#0A5078" cx="32" cy="36" r="2"/>
		</g>
		<g>
			<path fill="#0A5078" d="M32,37c-0.256,0-0.512-0.098-0.707-0.293c-0.391-0.391-0.391-1.023,0-1.414l5.5-5.5
				c0.391-0.391,1.023-0.391,1.414,0s0.391,1.023,0,1.414l-5.5,5.5C32.512,36.902,32.256,37,32,37z"/>
		</g>
		<g>
			<circle fill="#00325A" cx="32" cy="37" r="1"/>
		</g>
		<g>
			<circle fill="#F0F0F0" cx="32" cy="36" r="1"/>
		</g>
		<g>
			<circle fill="#C80A50" cx="29" cy="43" r="1"/>
		</g>
		<g>
			<circle fill="#FAB400" cx="32" cy="43" r="1"/>
		</g>
		<g>
			<circle fill="#00A0C8" cx="35" cy="43" r="1"/>
		</g>
	</g>
</g>
</svg>
