<?xml version="1.0" encoding="utf-8"?>
<!-- Generator: Adobe Illustrator 24.0.3, SVG Export Plug-In . SVG Version: 6.00 Build 0)  -->
<svg version="1.1" id="Layer_1" xmlns="http://www.w3.org/2000/svg" xmlns:xlink="http://www.w3.org/1999/xlink" x="0px"
     y="0px"
     viewBox="0 0 300 300" style="enable-background:new 0 0 300 300;" xml:space="preserve">
<style type="text/css">
	.st0{fill-rule:evenodd;clip-rule:evenodd;fill:#94C039;}
	.st1{fill-rule:evenodd;clip-rule:evenodd;fill:#D4247B;}
	.st2{fill-rule:evenodd;clip-rule:evenodd;fill:#069BB3;}
</style>
  <g>
	<path id="path3098" class="st0" d="M207.9,154.9L207.9,154.9l-0.2,1.8l-0.6,1.6l-13.7,23.8l-16.1,27.8l0,0L176,212l-1.6,1.7
		l-1.7,1.6l-1.8,1.2l-2.3,1.1l-2.1,0.7l-2.5,0.6l-2.3,0.2h-59.7l0,0l-1.3-0.2l-1.3-0.3l-1.1-0.8l-1-0.7l-0.8-0.8l-0.5-1.3l-0.5-1.3
		v-1.3l0,0v-1.5l0.7-1.5l15.6-27.3l14-24.6l0,0l1.3-1.8l1.5-1.8l1.8-1.5l2-1.5l2-1l2.3-0.8l2.3-0.5h2.5h59.7l0,0h1.3l0.9,0.5
		l1.3,0.5l0.8,0.7l1,1.1l0.5,1l0.3,1.3L207.9,154.9z M207.9,133.9L207.9,133.9l-0.2-1.8l-0.6-1.6l-13.7-23.9l-16.1-27.9l0,0
		l-1.3-1.8l-1.6-1.8l-1.7-1.6l-1.8-1.3l-2.3-1l-2.1-0.8l-2.5-0.5l-2.3-0.2h-59.7l0,0l-1.3,0.2l-1.3,0.3l-1.1,0.5l-1,0.7l-0.8,1.1
		l-0.5,1.3l-0.5,1v1.3l0,0v1.8l0.7,1.5l15.6,27.2l14,24.7l0,0l1.3,1.8l1.5,1.8l1.8,1.5l2,1.3l2,1l2.3,0.8l2.3,0.5l2.5,0.2h59.7l0,0
		l1.3-0.2l0.9-0.3l1.3-0.5l0.8-0.8l1-1l0.5-1l0.3-1.2L207.9,133.9z"/>
    <path id="path3100" class="st1" d="M299.5,154.6L299.5,154.6l-0.2,1.8l-0.8,1.6l-13.6,23.9l-16.1,27.8l0,0l-1.3,2.1l-1.5,1.8
		l-1.8,1.5l-1.8,1.3l-2.4,1.1l-2.2,0.7l-2.3,0.6l-2.6,0.2H193l0,0l-1.3-0.2l-1.3-0.3l-1.1-0.8l-1-0.7l-0.7-0.8l-0.8-1.3l-0.3-1.3
		l-0.3-1.3l0,0l0.3-1.6l0.8-1.5l15.7-27.3l14.1-24.7l0,0l1.2-1.8l1.6-1.8l1.8-1.5l2-1.5l2.1-1l2.3-0.8l2.3-0.5h2.6h59.7l0,0h1.6
		l1,0.5l1.3,0.5l0.8,0.7l0.7,1.1l0.8,1l0.3,1.3L299.5,154.6z M186.3,233.7L186.3,233.7l0.3,1.6l0.8,1.6l13.6,23.9l16.2,28l0,0
		l1.2,2.1l1.6,1.5l1.8,1.6l2,1.6l2.1,1l2.3,0.7l2.3,0.5h2.6h59.7l0,0h1.6l1-0.5l1.3-0.5l0.8-0.8l0.7-1l0.8-1l0.3-1.3l0.2-1.3l0,0
		l-0.2-1.8l-0.8-1.3l-15.6-27.5l-14.1-24.5l0,0l-1.3-2l-1.5-1.8l-1.8-1.6l-1.8-1.2l-2.4-1l-2.2-0.8l-2.3-0.6l-2.6-0.2H193l0,0
		l-1.3,0.2l-1.3,0.3l-1.1,0.8l-1,0.7l-0.7,1.1l-0.8,1l-0.3,1.3L186.3,233.7z"/>
    <path id="path3102" class="st2" d="M89.3,83.8l29.8,52.1l0,0l1.1,2l0.7,2.4l0.5,2.6v2.3v2.2l-0.5,2.4l-0.7,2.2l-1.1,2.1l-14.4,24.3
		l-15.7,27.2l0,0l-1,1.2l-1.5,1l0,0l-1,0.6l-1.3,0.2h-1.3l-1.3-0.2l-1.1-0.3l-1.3-0.7l-0.7-0.8l-0.8-1L48,153.6l0,0l-1.3-2.4L46,149
		l-0.2-2.3l-0.3-2.3l0.3-2.5l0.5-2.4l0.8-2l1-2.1l16.2-28l13.9-23.6l0,0l1-1.6l1.3-1l0,0l1.3-0.5l1.3-0.3h1.3l1,0.3l1.3,0.5l1,0.6
		l1.1,1L89.3,83.8z M35.4,2.9L35.4,2.9L34.2,4l-1.1,1.3L19.2,29.2L3,56.9l0,0l-1,2.3l-0.8,2l-0.5,2.4l-0.3,2.3l0.3,2.5l0.5,2.3L2,73
		l1,2.4l29.8,51.8l0,0l0.8,1.3l1,0.7l1.1,0.8l1.1,0.3l1.3,0.2h1.3l1.3-0.2l1.3-0.5l0,0l1.3-1l1-1.3l15.7-27.2l14.4-24.3l0,0l1.1-2.4
		l0.7-2l0.5-2.3v-2.3v-2.6L76,62l-0.7-2.3l-1.1-2.3L44.4,5.5l0,0l-0.7-1.2l-1.1-0.8l-1.1-0.8l-1.3-0.2l-1-0.3H38l-1.3,0.3L35.4,2.9z
		"/>
</g>
</svg>
