<svg version="1.0" xmlns="http://www.w3.org/2000/svg"
     width="400.000000pt" height="400.000000pt" viewBox="0 0 400.000000 400.000000"
     preserveAspectRatio="xMidYMid meet">

  <g transform="translate(0.000000,400.000000) scale(0.100000,-0.100000)"
     fill="#da2226" stroke="none">
    <path d="M1860 3534 c-361 -44 -662 -179 -903 -405 l-88 -82 47 -49 c27 -26
53 -48 58 -48 5 0 41 31 80 68 169 163 379 275 632 339 101 26 123 28 314 28
191 0 213 -2 314 -28 254 -64 463 -176 634 -341 l73 -70 52 53 52 52 -85 81
c-199 188 -491 334 -765 383 -88 15 -346 27 -415 19z"/>
    <path d="M710 2817 c-60 -30 -188 -342 -227 -552 -27 -147 -24 -402 5 -552 62
-314 201 -573 427 -798 225 -226 484 -364 798 -427 160 -32 414 -32 574 0 314
63 573 201 798 427 226 225 365 484 427 798 29 150 32 405 5 552 -40 216 -168
523 -230 553 -15 7 -36 11 -46 7 -11 -3 -293 -230 -627 -505 l-607 -499 -71
58 c-664 541 -1149 932 -1165 940 -25 14 -30 14 -61 -2z m285 -364 l211 -171
27 -373 c15 -206 27 -379 27 -385 0 -8 23 -10 73 -6 39 2 73 5 74 6 1 1 -8
141 -21 312 -14 170 -23 310 -21 312 2 2 136 -105 299 -238 163 -132 307 -245
321 -250 14 -5 33 -6 44 -2 10 4 155 119 321 255 166 137 304 246 307 243 3
-3 -4 -130 -16 -283 -11 -153 -21 -294 -21 -315 l0 -36 68 -4 c37 -2 68 -3 70
-2 1 1 16 176 32 390 26 331 33 391 48 406 57 56 397 326 403 320 17 -20 81
-188 103 -272 40 -151 49 -246 43 -419 -4 -120 -12 -180 -32 -261 -57 -231
-160 -429 -307 -595 -202 -227 -434 -367 -734 -442 -101 -26 -123 -28 -314
-28 -191 0 -213 2 -314 28 -300 75 -532 215 -734 442 -148 167 -250 364 -309
601 -25 100 -27 125 -28 304 0 152 4 214 18 280 35 165 118 379 140 362 7 -5
107 -85 222 -179z"/>
  </g>
</svg>
