
<svg version="1.0" xmlns="http://www.w3.org/2000/svg"
     width="200.000000pt" height="184.000000pt" viewBox="0 0 200.000000 184.000000"
     preserveAspectRatio="xMidYMid meet" fill="#ff4137">
  <g transform="translate(0.000000,184.000000) scale(0.100000,-0.100000)" stroke="none">
    <path d="M1686 1826 c-56 -21 -86 -45 -121 -97 l-30 -44 -474 3 c-515 4 -597
-1 -692 -44 -67 -31 -141 -103 -169 -167 -35 -78 -40 -160 -40 -642 0 -581 4
-606 106 -715 63 -67 139 -99 266 -112 61 -6 284 -8 548 -6 470 5 502 8 579
56 48 29 113 97 136 142 43 85 46 126 45 664 l-1 509 28 12 c40 17 107 96 121
143 25 82 9 159 -46 222 -64 75 -172 107 -256 76z m94 -226 c0 -100 -2 -120
-15 -120 -12 0 -15 16 -15 85 l0 85 -31 0 c-35 0 -36 23 -1 28 12 2 27 12 32
23 23 41 30 16 30 -101z m-243 -362 c95 -95 173 -176 173 -180 0 -5 -109 -147
-242 -316 -133 -169 -288 -367 -345 -439 -58 -73 -110 -133 -118 -133 -7 0
-76 80 -153 178 -77 97 -235 296 -350 442 -152 192 -207 269 -202 280 5 8 82
88 172 178 l164 162 364 0 364 0 173 -172z"/>
    <path d="M587 1212 c-48 -48 -87 -91 -87 -95 0 -4 47 -7 105 -7 l106 0 39 86
c22 47 40 90 40 95 0 5 -26 9 -58 9 l-57 0 -88 -88z"/>
    <path d="M894 1263 c-9 -21 -24 -58 -35 -82 -32 -74 -38 -71 140 -71 89 0 162
4 166 9 3 6 -10 47 -28 93 l-33 83 -97 3 -98 3 -15 -38z"/>
    <path d="M1221 1283 c0 -10 17 -52 37 -93 l37 -75 103 -3 c81 -2 102 0 102 11
0 7 -38 50 -84 95 l-84 82 -56 0 c-47 0 -56 -3 -55 -17z"/>
    <path d="M482 991 c8 -24 382 -493 386 -483 3 9 -21 88 -135 445 l-15 47 -120
0 c-70 0 -118 -4 -116 -9z"/>
    <path d="M830 994 c0 -11 162 -518 170 -533 8 -15 12 -5 111 314 34 110 64
206 66 213 4 9 -34 12 -171 12 -97 0 -176 -3 -176 -6z"/>
    <path d="M1250 868 c-22 -73 -57 -182 -76 -241 -19 -60 -33 -114 -32 -119 4
-10 379 459 386 482 2 6 -41 10 -116 10 l-120 0 -42 -132z"/>
  </g>
</svg>
