<?xml version="1.0" encoding="utf-8"?>
<svg version="1.1" id="layer" xmlns="http://www.w3.org/2000/svg" xmlns:xlink="http://www.w3.org/1999/xlink" x="0px"
     y="0px"
     viewBox="0 0 652 652" style="enable-background:new 0 0 652 652;" xml:space="preserve">
<style type="text/css">
	.st0{fill:#00CCED;}
</style>
  <path class="st0" d="M100.2,338.2c0-7.3-2.3-12.8-6.8-16.6c-4.5-3.8-10-6.6-16.6-8.5c-6.1-1.7-12.2-3.5-18.2-5.3
	c-5.6-1.7-8.4-3.9-8.4-6.7c0-3.3,3.1-5,9.2-5c2.9,0,5.4,0.6,7.5,1.8c2.1,1.2,3.3,3.1,3.7,5.8h27.2c-1-8.4-4.6-15.2-10.8-20.4
	c-6.1-5.1-15-7.7-26.5-7.7c-7.3,0-13.8,1.1-19.4,3.2c-5.6,2.1-10,5.3-13.2,9.6c-3.2,4.3-4.7,9.4-4.7,15.5c0,7.6,2.3,13.4,6.8,17.3
	c4.5,3.9,10,6.8,16.5,8.6c6.5,1.8,12.6,3.6,18.2,5.2c5.6,1.7,8.5,4,8.5,6.8c0,2.1-1.1,3.7-3.3,4.8c-2.2,1.1-5.1,1.7-8.8,1.7
	c-3,0-5.7-0.8-8.1-2.4c-2.3-1.6-3.9-4-4.6-7H21c0.2,5.4,2,10.3,5.3,14.9c3.3,4.5,7.8,8.1,13.6,10.8c5.8,2.7,12.4,4,19.9,4
	c8.1,0,15.2-1.1,21.3-3.4c6.1-2.3,10.8-5.7,14.2-10.2C98.5,350.4,100.2,344.8,100.2,338.2z M193.3,275.6h24.3v90.7h-24.3V275.6z
	 M252.7,275.6h-24.5v90.7h59.3l3.7-20.6h-38.6V275.6z M143.5,275.6h-12.1l-36.5,90.7h24.3l6.7-17.1H160l6.7,17.1H191l-36.5-90.7
	H143.5z M133.3,330.1l9.6-24.7l9.6,24.7H133.3z"/>
  <path class="st0" d="M417.4,310.9h-35.9v-35.3h-97.9L279,296h29.3l-13,70.3h24.5l13.8-70.3H357v70.3h24.5v-35.7h35.9v35.7h24.5
	v-90.7h-24.5L417.4,310.9z M529.4,306.2c0-16.9-13.7-30.6-30.6-30.6h-45.5v90.7h24.5v-29.5h8.9l19.5,29.5h26.4l-21.3-32.2
	C522,329.3,529.4,318.7,529.4,306.2z M494.9,318.2h-17.1v-22.6h17.1c6.3,0,11.3,5.1,11.3,11.3S501.2,318.2,494.9,318.2z
	 M596.9,275.6v55.5c0,9.1-7.4,16.5-16.5,16.5s-16.5-7.4-16.5-16.5v-55.5h-24.1v52.5c0,22.4,18.2,40.6,40.6,40.6
	c22.4,0,40.5-18.2,40.5-40.6v-52.5H596.9L596.9,275.6z"/>
</svg>
